<svg width="593" height="616" viewBox="0 0 593 616" fill="none" xmlns="http://www.w3.org/2000/svg">
<path d="M200.674 256.037C220.876 256.037 224.243 290.377 224.243 290.377" stroke="#414143" stroke-width="2" stroke-miterlimit="10" stroke-linecap="round"/>
<path d="M168.324 279.568V308.111C170.592 307.649 172.933 307.401 175.33 307.401C195.359 307.401 211.595 324.267 211.595 345.075C211.595 356.112 205.132 366.855 197.666 375.596H249.023C255.233 375.596 260.267 370.366 260.267 363.917V279.568H168.324Z" fill="#49DAC2"/>
<path d="M240.166 279.568V363.917C240.166 370.366 245.201 375.596 251.409 375.596H261.211C267.42 375.596 272.454 370.366 272.454 363.917V279.568H240.166Z" fill="#414143"/>
<path d="M179.705 290.539C179.705 292.207 178.403 293.558 176.796 293.558C175.19 293.558 173.889 292.206 173.889 290.539C173.889 288.869 175.191 287.517 176.796 287.517C178.404 287.517 179.705 288.869 179.705 290.539Z" fill="#FBF8EE"/>
<path d="M216.438 290.539C216.438 292.207 215.136 293.558 213.529 293.558C211.924 293.558 210.622 292.206 210.622 290.539C210.622 288.869 211.924 287.517 213.529 287.517C215.136 287.517 216.438 288.869 216.438 290.539Z" fill="#FBF8EE"/>
<path d="M264.037 290.539C264.037 292.207 262.735 293.558 261.128 293.558C259.522 293.558 258.221 292.206 258.221 290.539C258.221 288.869 259.523 287.517 261.128 287.517C262.736 287.517 264.037 288.869 264.037 290.539Z" fill="#FBF8EE"/>
<path d="M213.529 290.379C213.529 290.379 217.05 256.038 237.252 256.038C257.455 256.038 260.822 290.379 260.822 290.379" stroke="#414143" stroke-width="2" stroke-miterlimit="10" stroke-linecap="round"/>
<path d="M176.951 290.379C176.951 290.379 180.47 256.038 200.674 256.038" stroke="#414143" stroke-width="2" stroke-miterlimit="10" stroke-linecap="round"/>
<path d="M174.851 315.375C159.491 315.375 147.039 328.31 147.039 344.266C147.039 364.656 174.851 383.152 174.851 383.152C174.851 383.152 202.664 364.325 202.664 344.266C202.664 328.31 190.211 315.375 174.851 315.375ZM174.852 360.117C164.842 360.117 156.728 351.689 156.728 341.29C156.728 330.892 164.842 322.462 174.852 322.462C184.861 322.462 192.976 330.892 192.976 341.29C192.976 351.689 184.861 360.117 174.852 360.117Z" fill="#FCB041"/>
<path d="M161.086 371.498C167.991 378.587 174.85 383.152 174.85 383.152C174.85 383.152 202.662 364.325 202.662 344.266C202.662 342.473 202.496 340.721 202.196 339.018C203.477 356.018 182.365 377.041 161.086 371.498Z" fill="#FCB041"/>
<path opacity="0.5" d="M226.039 375.596C222.348 352.364 214.509 330.101 199.888 317.359C207.083 324.244 211.595 334.11 211.595 345.073C211.595 356.111 205.132 366.854 197.666 375.595H226.039V375.596Z" fill="#49DAC2"/>
<path d="M174.852 355.022C167.551 355.022 161.633 348.875 161.633 341.29C161.633 333.706 167.551 327.557 174.852 327.557C182.152 327.557 188.071 333.704 188.071 341.29C188.071 348.875 182.152 355.022 174.852 355.022Z" fill="#FCB041"/>
<path d="M309.068 315.65C306.711 315.65 304.598 315.267 302.731 314.502C300.864 313.736 299.364 312.604 298.231 311.104C297.129 309.603 296.547 307.797 296.486 305.685H304.843C304.966 306.879 305.379 307.797 306.083 308.44C306.787 309.052 307.706 309.359 308.838 309.359C310.002 309.359 310.92 309.098 311.593 308.578C312.267 308.027 312.604 307.277 312.604 306.328C312.604 305.532 312.328 304.874 311.777 304.353C311.257 303.833 310.599 303.404 309.803 303.068C309.037 302.731 307.935 302.348 306.496 301.92C304.415 301.277 302.716 300.634 301.399 299.991C300.083 299.348 298.95 298.399 298.001 297.144C297.052 295.889 296.578 294.251 296.578 292.231C296.578 289.23 297.665 286.889 299.838 285.205C302.012 283.491 304.843 282.633 308.333 282.633C311.884 282.633 314.747 283.491 316.92 285.205C319.094 286.889 320.257 289.246 320.41 292.276H311.915C311.854 291.236 311.471 290.424 310.767 289.843C310.063 289.23 309.16 288.924 308.058 288.924C307.109 288.924 306.343 289.185 305.762 289.705C305.18 290.195 304.889 290.914 304.889 291.863C304.889 292.904 305.379 293.715 306.359 294.297C307.338 294.879 308.869 295.506 310.951 296.18C313.032 296.884 314.716 297.557 316.002 298.2C317.318 298.843 318.451 299.777 319.4 301.001C320.349 302.226 320.823 303.802 320.823 305.731C320.823 307.568 320.349 309.236 319.4 310.736C318.481 312.236 317.134 313.43 315.359 314.318C313.583 315.206 311.486 315.65 309.068 315.65ZM341.406 289.429C344.345 289.429 346.702 290.409 348.478 292.368C350.253 294.297 351.141 296.96 351.141 300.358V315.328H343.335V301.414C343.335 299.7 342.891 298.368 342.003 297.419C341.115 296.47 339.921 295.996 338.421 295.996C336.921 295.996 335.727 296.47 334.84 297.419C333.952 298.368 333.508 299.7 333.508 301.414V315.328H325.656V281.348H333.508V293.149C334.304 292.016 335.391 291.113 336.768 290.44C338.146 289.766 339.692 289.429 341.406 289.429ZM368.261 315.695C365.751 315.695 363.485 315.16 361.465 314.088C359.475 313.017 357.899 311.486 356.735 309.496C355.603 307.506 355.036 305.18 355.036 302.517C355.036 299.884 355.618 297.573 356.781 295.583C357.945 293.562 359.536 292.016 361.557 290.945C363.577 289.873 365.843 289.338 368.353 289.338C370.863 289.338 373.129 289.873 375.149 290.945C377.17 292.016 378.761 293.562 379.925 295.583C381.088 297.573 381.67 299.884 381.67 302.517C381.67 305.149 381.073 307.476 379.879 309.496C378.715 311.486 377.108 313.017 375.057 314.088C373.037 315.16 370.771 315.695 368.261 315.695ZM368.261 308.899C369.761 308.899 371.032 308.348 372.072 307.246C373.144 306.144 373.68 304.568 373.68 302.517C373.68 300.465 373.159 298.889 372.118 297.787C371.108 296.685 369.853 296.134 368.353 296.134C366.822 296.134 365.552 296.685 364.542 297.787C363.531 298.858 363.026 300.435 363.026 302.517C363.026 304.568 363.516 306.144 364.496 307.246C365.506 308.348 366.761 308.899 368.261 308.899ZM393.688 293.333C394.453 292.139 395.509 291.174 396.856 290.44C398.203 289.705 399.78 289.338 401.586 289.338C403.698 289.338 405.611 289.873 407.326 290.945C409.04 292.016 410.387 293.547 411.367 295.537C412.377 297.527 412.882 299.838 412.882 302.471C412.882 305.103 412.377 307.43 411.367 309.45C410.387 311.44 409.04 312.986 407.326 314.088C405.611 315.16 403.698 315.695 401.586 315.695C399.81 315.695 398.234 315.328 396.856 314.593C395.509 313.859 394.453 312.91 393.688 311.746V327.543H385.835V289.705H393.688V293.333ZM404.892 302.471C404.892 300.511 404.341 298.981 403.239 297.879C402.167 296.746 400.836 296.18 399.244 296.18C397.683 296.18 396.351 296.746 395.249 297.879C394.177 299.011 393.642 300.557 393.642 302.517C393.642 304.476 394.177 306.022 395.249 307.154C396.351 308.287 397.683 308.853 399.244 308.853C400.805 308.853 402.137 308.287 403.239 307.154C404.341 305.991 404.892 304.43 404.892 302.471Z" fill="#414143"/>
<path d="M305.256 362.089H315.542V368.15H297.403V335.915H305.256V362.089ZM330.951 368.518C328.44 368.518 326.175 367.982 324.154 366.91C322.165 365.839 320.588 364.308 319.425 362.318C318.292 360.329 317.726 358.002 317.726 355.339C317.726 352.706 318.307 350.395 319.471 348.405C320.634 346.384 322.226 344.838 324.246 343.767C326.267 342.695 328.532 342.16 331.042 342.16C333.553 342.16 335.818 342.695 337.838 343.767C339.859 344.838 341.451 346.384 342.614 348.405C343.777 350.395 344.359 352.706 344.359 355.339C344.359 357.971 343.762 360.298 342.568 362.318C341.405 364.308 339.798 365.839 337.747 366.91C335.726 367.982 333.461 368.518 330.951 368.518ZM330.951 361.721C332.451 361.721 333.721 361.17 334.762 360.068C335.833 358.966 336.369 357.39 336.369 355.339C336.369 353.288 335.849 351.711 334.808 350.609C333.798 349.507 332.542 348.956 331.042 348.956C329.512 348.956 328.241 349.507 327.231 350.609C326.221 351.68 325.716 353.257 325.716 355.339C325.716 357.39 326.206 358.966 327.185 360.068C328.195 361.17 329.451 361.721 330.951 361.721ZM346.964 355.339C346.964 352.675 347.499 350.349 348.571 348.359C349.673 346.369 351.188 344.838 353.117 343.767C355.076 342.695 357.311 342.16 359.821 342.16C363.035 342.16 365.714 343.002 367.857 344.685C370.031 346.369 371.454 348.741 372.128 351.803H363.77C363.066 349.844 361.704 348.864 359.683 348.864C358.244 348.864 357.096 349.43 356.239 350.563C355.382 351.665 354.954 353.257 354.954 355.339C354.954 357.42 355.382 359.027 356.239 360.16C357.096 361.262 358.244 361.813 359.683 361.813C361.704 361.813 363.066 360.834 363.77 358.874H372.128C371.454 361.874 370.031 364.232 367.857 365.946C365.683 367.66 363.005 368.518 359.821 368.518C357.311 368.518 355.076 367.982 353.117 366.91C351.188 365.839 349.673 364.308 348.571 362.318C347.499 360.329 346.964 358.002 346.964 355.339ZM374.766 355.293C374.766 352.66 375.256 350.349 376.236 348.359C377.246 346.369 378.608 344.838 380.323 343.767C382.037 342.695 383.95 342.16 386.063 342.16C387.869 342.16 389.445 342.527 390.792 343.262C392.17 343.996 393.226 344.961 393.961 346.155V342.527H401.813V368.15H393.961V364.522C393.196 365.716 392.124 366.681 390.746 367.415C389.4 368.15 387.823 368.518 386.017 368.518C383.935 368.518 382.037 367.982 380.323 366.91C378.608 365.808 377.246 364.262 376.236 362.272C375.256 360.252 374.766 357.925 374.766 355.293ZM393.961 355.339C393.961 353.379 393.41 351.833 392.308 350.701C391.236 349.568 389.92 349.002 388.359 349.002C386.797 349.002 385.466 349.568 384.364 350.701C383.292 351.803 382.756 353.333 382.756 355.293C382.756 357.252 383.292 358.813 384.364 359.976C385.466 361.109 386.797 361.675 388.359 361.675C389.92 361.675 391.236 361.109 392.308 359.976C393.41 358.844 393.961 357.298 393.961 355.339ZM415.346 334.17V368.15H407.494V334.17H415.346Z" fill="#FCB041"/>
</svg>
